<svg width="32" height="32" fill="none" xmlns="http://www.w3.org/2000/svg"><g clip-path="url(#a)"><path fill-rule="evenodd" clip-rule="evenodd" d="M11.941 8.195a.327.327 0 0 0-.328.325v1.398c0 .18.149.328.328.328h11.864c3.304 0 5.902 2.547 5.902 5.848 0 .093.074.168.168.168h1.719a.167.167 0 0 0 .168-.168c0-4.41-3.54-7.899-7.957-7.899H11.94ZM2.32 16.406a.144.144 0 0 0-.144-.144H.379a.143.143 0 0 0-.14.144c0 4.461 3.335 8.145 7.652 8.387l13.828.012c.18 0 .324-.145.324-.325v-1.5a.323.323 0 0 0-.324-.324H8.367c-3.34-.011-6.047-2.793-6.047-6.25Z" fill="#6B7B84" stroke="#80949F" stroke-width=".163"/><path fill-rule="evenodd" clip-rule="evenodd" d="M9.188 21.008c.894 0 1.64-.172 2.374-.531l.051-.047v-2.563l-.273.356a2.725 2.725 0 0 1-2.047.898c-1.5 0-3.004-.973-3.004-2.824 0-1.402 1.04-2.89 2.953-2.89.38 0 1.309.09 2.098.925l.273.34v-2.547l-.047-.05a5.173 5.173 0 0 0-2.386-.56c-1.492 0-2.657.395-3.582 1.204-.586.504-1.567 1.64-1.567 3.55 0 1.41.5 2.516 1.574 3.473 1 .875 2.106 1.266 3.582 1.266Z" fill="#6B7B84"/><path d="M9.188 21.008c.894 0 1.64-.172 2.374-.531l.051-.047v-2.563l-.273.356a2.725 2.725 0 0 1-2.047.898c-1.5 0-3.004-.973-3.004-2.824 0-1.402 1.04-2.89 2.953-2.89.38 0 1.309.09 2.098.925l.273.34v-2.547l-.047-.05a5.173 5.173 0 0 0-2.386-.56c-1.492 0-2.657.395-3.582 1.204-.586.504-1.567 1.64-1.567 3.55 0 1.41.5 2.516 1.574 3.473 1 .875 2.106 1.266 3.583 1.266Z" stroke="#80949F" stroke-width=".163"/><path fill-rule="evenodd" clip-rule="evenodd" d="M15.645 13.652h.445c.41 0 .875.024 1.226.262.172.125.461.41.461.926 0 .383-.168.726-.445.941-.36.258-.785.242-1.125.242h-.563v-2.37Zm1 4.098c1.054 0 1.882-.305 2.457-.879.703-.707.808-1.676.808-2.187 0-.547-.129-1.614-.996-2.387-.715-.625-1.473-.781-2.543-.781h-2.86v9.492h2.173V17.75h.96Z" fill="#6B7B84"/><path d="M15.645 13.652v-.082h-.082v.082h.082Zm1.687 2.13.047.066v-.004l-.047-.063Zm-1.688.241h-.082v.082h.083v-.082Zm-2.132-4.507v-.082h-.082v.082h.082Zm0 9.492h-.082v.082h.082v-.082Zm2.172 0v.082h.082v-.082h-.082Zm0-3.258v-.082h-.079v.082h.079Zm-.04-4.016h.446v-.164h-.445v.164Zm.446 0c.41 0 .851.024 1.18.25l.093-.136c-.375-.258-.867-.278-1.273-.278v.164Zm1.18.246c.16.114.425.38.425.86h.164c0-.55-.308-.86-.496-.992l-.093.132Zm.425.86c0 .36-.156.676-.414.875l.098.129c.3-.23.48-.598.48-1.004h-.164Zm-.414.875c-.332.242-.726.23-1.074.23v.16c.332 0 .79.02 1.172-.257l-.098-.133Zm-1.074.23h-.563v.16h.563v-.16Zm-.48.078v-2.37h-.165v2.37h.165Zm.918 1.805c1.07 0 1.921-.308 2.511-.902l-.113-.113c-.555.554-1.36.855-2.398.855v.16Zm2.511-.902c.73-.727.836-1.723.836-2.242h-.164c0 .504-.101 1.445-.785 2.129l.113.113Zm.836-2.242c0-.555-.129-1.653-1.023-2.45l-.11.125c.844.75.97 1.786.97 2.325h.163Zm-1.023-2.45c-.735-.64-1.52-.8-2.598-.8v.164c1.063 0 1.797.156 2.488.761l.11-.125Zm-2.598-.8h-2.86v.164h2.86v-.164Zm-2.941.082v9.492h.164v-9.492h-.164Zm.082 9.574h2.172v-.164h-2.172v.164Zm2.254-.082V17.75h-.16v3.258h.16Zm-.082-3.18h.96v-.16h-.96v.16Z" fill="#80949F"/><path fill-rule="evenodd" clip-rule="evenodd" d="M26.434 16c-.473-.422-1.133-.664-1.883-.914-.531-.188-.828-.29-1.024-.469a.573.573 0 0 1-.222-.46c0-.415.28-.856 1.066-.856.535 0 .985.226 1.332.68l.14.18 1.15-1.466-.106-.105c-.703-.703-1.63-1.074-2.676-1.074-2.117 0-3.063 1.379-3.063 2.742 0 .734.262 1.324.774 1.758.46.394 1.02.613 1.558.797l.06.019c.476.156.972.32 1.265.586a.83.83 0 0 1 .297.664c0 .621-.489 1.04-1.215 1.04a1.95 1.95 0 0 1-1.735-1.075l-.101-.207-1.43 1.32.086.121c.453.645 1.48 1.727 3.246 1.727 1.945 0 3.305-1.25 3.305-3.043 0-1.027-.45-1.637-.824-1.965Z" fill="#6B7B84"/><path d="M26.434 16c-.473-.422-1.133-.664-1.883-.914-.531-.188-.828-.29-1.024-.469a.573.573 0 0 1-.222-.46c0-.415.281-.856 1.066-.856.535 0 .985.226 1.332.68l.14.18 1.15-1.466-.106-.105c-.703-.703-1.63-1.074-2.676-1.074-2.117 0-3.063 1.379-3.063 2.742 0 .734.262 1.324.774 1.758.46.394 1.02.613 1.558.797l.06.019c.476.156.972.32 1.265.586a.83.83 0 0 1 .297.664c0 .621-.489 1.04-1.215 1.04a1.95 1.95 0 0 1-1.735-1.075l-.101-.207-1.43 1.32.086.121c.453.645 1.48 1.727 3.246 1.727 1.945 0 3.305-1.25 3.305-3.043 0-1.027-.45-1.637-.824-1.965Z" stroke="#80949F" stroke-width=".163"/></g><defs><clipPath id="a"><path fill="#fff" transform="translate(0 8)" d="M0 0h32v17H0z"/></clipPath></defs></svg>